<svg xmlns="http://www.w3.org/2000/svg" style="display: none;">
  <defs>
    <symbol id="icon-menu" viewBox="0 0 20 20">
      <path d="M16.4 9h-12.8c-0.552 0-0.6 0.447-0.6 1s0.048 1 0.6 1h12.8c0.552 0 0.6-0.447 0.6-1s-0.048-1-0.6-1zM16.4 13h-12.8c-0.552 0-0.6 0.447-0.6 1s0.048 1 0.6 1h12.8c0.552 0 0.6-0.447 0.6-1s-0.048-1-0.6-1zM3.6 7h12.8c0.552 0 0.6-0.447 0.6-1s-0.048-1-0.6-1h-12.8c-0.552 0-0.6 0.447-0.6 1s0.048 1 0.6 1z"></path>
    </symbol>
  
    <symbol id="toss-logo" viewBox="0 0 453.07 120">
      <path d="M 124.25 59.34 a 54.37 54.37 0 0 0 -53.4 -48.06 h -0.6 a 54.58 54.58 0 0 0 -27.31 7.35 l -0.41 0.25 l -0.36 0.21 C 11.09 37.6 0 80.34 0 106.36 l 25 -14.45 c 8.82 16.81 25.75 27.88 44.62 28.09 h 0.6 a 53.62 53.62 0 0 0 6.3 -0.37 a 54.37 54.37 0 0 0 47.73 -60.29 Z M 399.63 86.56 c 3.67 7.29 10.23 11.08 18.91 11.06 c 8.52 0 13.08 -4.15 13.06 -9 c 0 -5.93 -8.84 -7.28 -19.36 -9.38 c -13.85 -2.88 -29.24 -7.1 -29.24 -24.45 c 0 -13.85 13.33 -25.91 33.58 -25.81 c 16.08 0 26.17 5.56 33.64 15.09 L 432.73 54.2 c -3.36 -5.47 -8.55 -8.65 -16.16 -8.63 c -8.22 0 -12.17 3.38 -12.16 8 c 0 5.17 6.72 6.52 18.75 9.08 c 13.71 2.7 29.86 7.38 29.91 25 c 0 12.79 -11.35 27.27 -35.25 27.19 c -18 0.05 -29.93 -6.17 -36.83 -17.44 Z M 324.52 86.56 c 3.68 7.29 10.23 11.08 18.91 11.06 c 8.52 0 13.08 -4.15 13.07 -9 c 0 -5.93 -8.85 -7.28 -19.36 -9.38 c -13.86 -2.86 -29.25 -7.08 -29.29 -24.43 c 0 -13.85 13.32 -25.91 33.57 -25.81 c 16.09 0 26.17 5.56 33.65 15.09 L 357.62 54.2 c -3.36 -5.47 -8.55 -8.65 -16.16 -8.63 c -8.22 0 -12.17 3.38 -12.15 8 c 0 5.17 6.71 6.52 18.75 9.08 c 13.7 2.7 29.85 7.38 29.9 25 c 0 12.79 -11.34 27.27 -35.25 27.19 c -18 0.05 -29.93 -6.17 -36.82 -17.44 Z M 258.26 29 a 42.92 42.92 0 1 0 42.92 42.9 A 42.93 42.93 0 0 0 258.26 29 Z m 0 65.81 a 22.89 22.89 0 1 1 22.89 -22.91 a 22.89 22.89 0 0 1 -22.89 22.89 Z M 204.23 89.13 c -2.64 2.11 -8.17 4.71 -10.94 4.71 c -5.38 0 -9.07 -3.07 -9.07 -11.83 V 49.4 h 25.55 V 30.66 h -25.55 V 0 l -21.29 12.29 v 18.37 h -17 V 49.4 h 17 v 34.52 c 0 22.6 10.54 30.9 27.9 30.9 c 7.68 0 17.93 -4.55 23.3 -8.54 Z"/>
    </symbol>

  </defs>
</svg>